<svg xmlns="http://www.w3.org/2000/svg" width="64.267" height="64.267" viewBox="0 0 64.267 64.267">
  <path id="arrow-para-baixo" d="M24,27.214A46.021,46.021,0,0,0,69.715,73.276l4.279-3.21L69.7,66.848A39.635,39.635,0,0,1,30.428,27.214a3.214,3.214,0,1,0-6.428,0ZM63.21,84.85a3.214,3.214,0,0,1,.643-4.5L77.565,70.066,63.853,59.782a3.214,3.214,0,1,1,3.857-5.142L84.85,67.5a3.214,3.214,0,0,1,0,5.142L67.709,85.493a3.214,3.214,0,0,1-4.5-.643Z" transform="matrix(-0.035, 0.999, -0.999, -0.035, 89.09, -20.979)" fill="#ffd040"/>
</svg>
