<svg xmlns="http://www.w3.org/2000/svg" xmlns:xlink="http://www.w3.org/1999/xlink" width="148" height="44" viewBox="0 0 148 44">
  <defs>
    <filter id="Ret창ngulo_11" x="0" y="0" width="148" height="44" filterUnits="userSpaceOnUse">
      <feOffset dy="3" input="SourceAlpha"/>
      <feGaussianBlur stdDeviation="3" result="blur"/>
      <feFlood flood-opacity="0.161"/>
      <feComposite operator="in" in2="blur"/>
      <feComposite in="SourceGraphic"/>
    </filter>
  </defs>
  <g id="barato" transform="translate(-388 -448)">
    <g transform="matrix(1, 0, 0, 1, 388, 448)" filter="url(#Ret창ngulo_11)">
      <rect id="Ret창ngulo_11-2" data-name="Ret창ngulo 11" width="130" height="26" rx="3" transform="translate(9 6)" fill="#431383"/>
    </g>
    <text id="Mais_Barato" data-name="Mais Barato" transform="translate(473 472)" fill="#fff" font-size="14" font-family="Quicksand-Bold, Quicksand" font-weight="700"><tspan x="-40.467" y="0">Mais Barato</tspan></text>
    <g id="money" transform="translate(411 459)">
      <circle id="Elipse_21" data-name="Elipse 21" cx="8" cy="8" r="8" fill="#ffe14d"/>
      <path id="Caminho_1712" data-name="Caminho 1712" d="M263.987,7.987A8,8,0,0,0,256,0V15.973A8,8,0,0,0,263.987,7.987Z" transform="translate(-248.013)" fill="#fb3"/>
      <g id="Grupo_251" data-name="Grupo 251" transform="translate(1.903 1.903)">
        <g id="Grupo_250" data-name="Grupo 250">
          <path id="Caminho_1713" data-name="Caminho 1713" d="M67.084,73.167a6.084,6.084,0,1,1,6.084-6.084A6.091,6.091,0,0,1,67.084,73.167Z" transform="translate(-61 -61)" fill="#fb3"/>
        </g>
      </g>
      <path id="Caminho_1714" data-name="Caminho 1714" d="M262.084,67.084A6.091,6.091,0,0,0,256,61V73.167A6.091,6.091,0,0,0,262.084,67.084Z" transform="translate(-248.013 -59.097)" fill="#e68a2e"/>
      <g id="Cent_2_" transform="translate(5.647 3.77)">
        <path id="Caminho_1715" data-name="Caminho 1715" d="M183.808,124.636v-1.85c.538.132.936.478.936.876a.468.468,0,1,0,.936,0,2.035,2.035,0,0,0-1.872-1.834v-.506a.468.468,0,1,0-.936,0v.506a1.834,1.834,0,1,0,0,3.668v1.85c-.538-.132-.936-.478-.936-.876a.468.468,0,1,0-.936,0,2.035,2.035,0,0,0,1.872,1.834v.51a.468.468,0,0,0,.936,0v-.51a1.834,1.834,0,1,0,0-3.668Zm-1.872-.974c0-.4.4-.744.936-.876v1.753C182.334,124.406,181.936,124.06,181.936,123.662Zm1.872,3.684v-1.753c.538.132.936.478.936.876S184.346,127.214,183.808,127.346Z" transform="translate(-181 -120.854)" fill="#ffe14d"/>
      </g>
      <path id="Caminho_1716" data-name="Caminho 1716" d="M256.468,128.814v-.51a1.834,1.834,0,1,0,0-3.668v-1.85c.538.132.936.478.936.876a.468.468,0,1,0,.936,0,2.036,2.036,0,0,0-1.872-1.834v-.506a.468.468,0,0,0-.468-.468v8.428A.468.468,0,0,0,256.468,128.814Zm0-3.221c.538.132.936.478.936.876s-.4.744-.936.876Z" transform="translate(-248.013 -117.084)" fill="#fb3"/>
    </g>
  </g>
</svg>
