<svg xmlns="http://www.w3.org/2000/svg" width="20" height="17.317" viewBox="0 0 20 17.317">
  <g id="brazil" transform="translate(0 -34.253)">
    <g id="Grupo_207" data-name="Grupo 207" transform="translate(0 34.253)">
      <path id="Caminho_1679" data-name="Caminho 1679" d="M10,51.57a.587.587,0,0,1-.294-.079A29.611,29.611,0,0,1,3.8,46.635C2.066,44.8,0,42.122,0,39.74a5.551,5.551,0,0,1,4.843-5.378,6.056,6.056,0,0,1,3.361.3A4.23,4.23,0,0,1,10,36.024a4.23,4.23,0,0,1,1.8-1.362,6.057,6.057,0,0,1,3.361-.3A5.551,5.551,0,0,1,20,39.74a6.983,6.983,0,0,1-1.284,3.583,22.406,22.406,0,0,1-2.848,3.507,32.156,32.156,0,0,1-5.574,4.661A.587.587,0,0,1,10,51.57Z" transform="translate(0 -34.253)" fill="#bee75e"/>
    </g>
    <path id="Caminho_1680" data-name="Caminho 1680" d="M260.329,34.363a6.057,6.057,0,0,0-3.361.3,4.23,4.23,0,0,0-1.8,1.362l-.007-.01V51.571h.007a.587.587,0,0,0,.294-.079,32.153,32.153,0,0,0,5.574-4.661,22.4,22.4,0,0,0,2.848-3.507,6.983,6.983,0,0,0,1.284-3.583,5.551,5.551,0,0,0-4.843-5.378Z" transform="translate(-245.171 -0.001)" fill="#00cb75"/>
    <g id="Grupo_208" data-name="Grupo 208" transform="translate(3.409 38.435)">
      <path id="Caminho_1681" data-name="Caminho 1681" d="M93.639,150.056a.587.587,0,0,1-.321-.1l-6-3.915a.587.587,0,0,1,0-.984l6-3.915a.587.587,0,0,1,.642,0l6,3.915a.587.587,0,0,1,0,.984l-6,3.915A.586.586,0,0,1,93.639,150.056Z" transform="translate(-87.048 -141.05)" fill="#fff36c"/>
    </g>
    <path id="Caminho_1682" data-name="Caminho 1682" d="M261.494,145.065l-6-3.915a.587.587,0,0,0-.328-.1v9.005h.007a.587.587,0,0,0,.321-.1l6-3.915a.588.588,0,0,0,0-.984Z" transform="translate(-245.17 -102.62)" fill="#ffde46"/>
    <g id="Grupo_209" data-name="Grupo 209" transform="translate(6.768 39.706)">
      <path id="Caminho_1683" data-name="Caminho 1683" d="M176.054,179.964a3.234,3.234,0,0,1-3.2-3.695c.035-.245,1.158-.5,1.245-.726s-.866-.405-.738-.6a3.232,3.232,0,0,1,5.647,3.1c-.082.184-.383-.328-.5-.165-.157.228-.139,1.122-.349,1.3A3.219,3.219,0,0,1,176.054,179.964Z" transform="translate(-172.822 -173.5)" fill="#00429d"/>
    </g>
    <path id="Caminho_1684" data-name="Caminho 1684" d="M255.171,173.5h-.007v6.464h.007a3.218,3.218,0,0,0,2.11-.786c.209-.181.191-1.074.349-1.3.113-.164.415.348.5.165a3.232,3.232,0,0,0-2.955-4.541Z" transform="translate(-245.171 -133.793)" fill="#00347b"/>
    <path id="Caminho_1685" data-name="Caminho 1685" d="M179.836,211.249a5.191,5.191,0,0,0-5.631-3.118,3.213,3.213,0,0,0-.522,1.347,4.01,4.01,0,0,1,5.289,2.925A3.249,3.249,0,0,0,179.836,211.249Z" transform="translate(-166.881 -167.003)" fill="#fff4f4"/>
    <path id="Caminho_1686" data-name="Caminho 1686" d="M256.717,217.455a5.188,5.188,0,0,0-1.554-.919v1.276a3.988,3.988,0,0,1,2.1,2.733,3.248,3.248,0,0,0,.864-1.154A5.191,5.191,0,0,0,256.717,217.455Z" transform="translate(-245.171 -175.145)" fill="#f6efea"/>
  </g>
</svg>
