<svg xmlns="http://www.w3.org/2000/svg" width="229.09" height="152.606" viewBox="0 0 229.09 152.606">
  <g id="caixa" transform="translate(-781.354 -477.412)">
    <path id="Caminho_1352" data-name="Caminho 1352" d="M932,689.082h83.919L1077.86,652.2l-84.836-42.805Z" transform="translate(-67.416 -59.064)" fill="#a8c4e5" opacity="0.4" style="mix-blend-mode: multiply;isolation: isolate"/>
    <path id="Caminho_1353" data-name="Caminho 1353" d="M878.6,574.953l65.92-38.059L878.6,498.836l-65.92,38.059Z" transform="translate(-14.019 -9.588)" fill="#bd9575"/>
    <path id="Caminho_1354" data-name="Caminho 1354" d="M932,574.953l65.92-38.059L932,498.836Z" transform="translate(-67.415 -9.588)" fill="#b38a68"/>
    <path id="Caminho_1355" data-name="Caminho 1355" d="M1010.557,610.152l17.624-10.407V587.834l-17.624,10.407Z" transform="translate(-102.573 -49.416)" fill="#a17b51"/>
    <path id="Caminho_1356" data-name="Caminho 1356" d="M997.917,527.306l14.89-10.607-66.193-39.287L932,489.248Z" transform="translate(-67.417)" fill="#d6a985"/>
    <path id="Caminho_1357" data-name="Caminho 1357" d="M864.582,489.248l-17.8-11.836-65.423,37.906,17.308,11.989Z" fill="#d6a985"/>
    <path id="Caminho_1358" data-name="Caminho 1358" d="M979.427,581.392v34.5l-34.984,20.2V580.779Z" transform="translate(-72.986 -46.259)" fill="#2a5072"/>
    <path id="Caminho_1359" data-name="Caminho 1359" d="M886.909,564.107V573.6l16.13-.283v55.308l-16.13-9.313v.1l-34.985-20.2v-34.5Z" transform="translate(-31.582 -38.798)" fill="#2a5072"/>
    <path id="Caminho_1360" data-name="Caminho 1360" d="M851.745,548.865l35.084-20.256,51.213,29.466-35.083,20.256Z" transform="translate(-31.501 -22.912)" fill="#f58634"/>
    <path id="Caminho_1361" data-name="Caminho 1361" d="M997.731,567.617v64.818L932,670.387V605.734Z" transform="translate(-67.416 -40.369)" fill="#bd9575"/>
    <path id="Caminho_1362" data-name="Caminho 1362" d="M878.751,605.734v64.653l-65.734-37.951V567.618Z" transform="translate(-14.17 -40.369)" fill="#d6a985"/>
    <path id="Caminho_1363" data-name="Caminho 1363" d="M864.58,605.782,848.5,616.926l-67.145-38.073,17.308-11.129Z" transform="translate(0 -40.416)" fill="#e8be99"/>
    <path id="Caminho_1364" data-name="Caminho 1364" d="M997.916,567.722l18,12.6L946.9,620.916,932,605.781Z" transform="translate(-67.415 -40.415)" fill="#d6a985"/>
    <g id="Grupo_131" data-name="Grupo 131" transform="translate(800.675 571.439)">
      <path id="Caminho_1365" data-name="Caminho 1365" d="M857.7,686.127l11.43,6.679V678.459L857.7,671.78Z" transform="translate(-834.842 -658.423)" fill="none" stroke="#122c73" stroke-linecap="round" stroke-linejoin="round" stroke-width="0.981"/>
      <path id="Caminho_1366" data-name="Caminho 1366" d="M837.013,674.039l11.429,6.679V666.37l-11.429-6.679Z" transform="translate(-825.584 -653.013)" fill="none" stroke="#122c73" stroke-linecap="round" stroke-linejoin="round" stroke-width="0.981"/>
      <path id="Caminho_1367" data-name="Caminho 1367" d="M816.326,661.95l11.429,6.679V654.282L816.326,647.6Z" transform="translate(-816.326 -647.603)" fill="none" stroke="#122c73" stroke-linecap="round" stroke-linejoin="round" stroke-width="0.981"/>
      <line id="Linha_1" data-name="Linha 1" y2="7.269" transform="translate(5.562 7.919)" fill="none" stroke="#122c73" stroke-linecap="round" stroke-linejoin="round" stroke-width="0.981"/>
      <path id="Caminho_1368" data-name="Caminho 1368" d="M826.73,664.109l-1.448-3.428-1.372,1.781" transform="translate(-819.721 -653.455)" fill="none" stroke="#122c73" stroke-linecap="round" stroke-linejoin="round" stroke-width="0.981"/>
      <path id="Caminho_1369" data-name="Caminho 1369" d="M848.843,678.237s-.076-3.966-2.667-5.48-2.819,2.274-2.819,2.274Z" transform="translate(-828.423 -658.7)" fill="none" stroke="#122c73" stroke-linecap="round" stroke-linejoin="round" stroke-width="0.981"/>
      <path id="Caminho_1370" data-name="Caminho 1370" d="M863.08,681.589s.076,3.966,2.667,5.479,2.819-2.274,2.819-2.274Z" transform="translate(-837.249 -662.812)" fill="none" stroke="#122c73" stroke-linecap="round" stroke-linejoin="round" stroke-width="0.981"/>
      <path id="Caminho_1371" data-name="Caminho 1371" d="M847.348,682.216v2.953c0,.535-.345.766-.771.518h0a1.8,1.8,0,0,1-.772-1.419v-.419" transform="translate(-829.518 -663.093)" fill="none" stroke="#122c73" stroke-linecap="round" stroke-linejoin="round" stroke-width="0.981"/>
      <line id="Linha_2" data-name="Linha 2" y2="4.334" transform="translate(28.497 24.256)" fill="none" stroke="#122c73" stroke-linecap="round" stroke-linejoin="round" stroke-width="0.981"/>
      <line id="Linha_3" data-name="Linha 3" x1="3.657" y1="2.137" transform="translate(26.669 27.767)" fill="none" stroke="#122c73" stroke-linecap="round" stroke-linejoin="round" stroke-width="0.981"/>
    </g>
    <path id="Caminho_1372" data-name="Caminho 1372" d="M864.511,578.927v3.479l-5.6-3.114v-3.585Z" transform="translate(-34.71 -43.989)" fill="#fff"/>
  </g>
</svg>
