<svg xmlns="http://www.w3.org/2000/svg" xmlns:xlink="http://www.w3.org/1999/xlink" width="56" height="42" viewBox="0 0 56 42">
  <defs>
    <filter id="Ret창ngulo_11" x="0" y="0" width="56" height="42" filterUnits="userSpaceOnUse">
      <feOffset dy="3" input="SourceAlpha"/>
      <feGaussianBlur stdDeviation="3" result="blur"/>
      <feFlood flood-opacity="0.161"/>
      <feComposite operator="in" in2="blur"/>
      <feComposite in="SourceGraphic"/>
    </filter>
  </defs>
  <g id="coin" transform="translate(-413 -450.655)">
    <g transform="matrix(1, 0, 0, 1, 413, 450.65)" filter="url(#Ret창ngulo_11)">
      <rect id="Ret창ngulo_11-2" data-name="Ret창ngulo 11" width="38" height="24" rx="3" transform="translate(9 6)" fill="#431383"/>
    </g>
    <g id="money" transform="translate(433.697 461.655)">
      <ellipse id="Elipse_21" data-name="Elipse 21" cx="7" cy="6.875" rx="7" ry="6.875" transform="translate(0.303 0.25)" fill="#ffe14d"/>
      <path id="Caminho_1712" data-name="Caminho 1712" d="M262.943,6.819A6.889,6.889,0,0,0,256,0V13.637A6.889,6.889,0,0,0,262.943,6.819Z" transform="translate(-249.585)" fill="#fb3"/>
      <g id="Grupo_251" data-name="Grupo 251" transform="translate(1.127 1.625)">
        <g id="Grupo_250" data-name="Grupo 250">
          <path id="Caminho_1713" data-name="Caminho 1713" d="M66.288,71.388a5.195,5.195,0,1,1,5.288-5.194A5.248,5.248,0,0,1,66.288,71.388Z" transform="translate(-61 -61)" fill="#fb3"/>
        </g>
      </g>
      <path id="Caminho_1714" data-name="Caminho 1714" d="M261.288,66.194A5.248,5.248,0,0,0,256,61V71.388A5.248,5.248,0,0,0,261.288,66.194Z" transform="translate(-249.585 -59.375)" fill="#e68a2e"/>
      <g id="Cent_2_" transform="translate(4.381 3.219)">
        <path id="Caminho_1715" data-name="Caminho 1715" d="M183.441,124.083V122.5c.468.113.814.408.814.748a.407.407,0,0,0,.814,0,1.754,1.754,0,0,0-1.627-1.566v-.432a.407.407,0,0,0-.814,0v.432a1.567,1.567,0,1,0,0,3.132v1.58c-.468-.113-.814-.408-.814-.748a.407.407,0,0,0-.814,0,1.754,1.754,0,0,0,1.627,1.566v.436a.407.407,0,0,0,.814,0v-.436a1.567,1.567,0,1,0,0-3.132Zm-1.627-.831c0-.34.346-.635.814-.748V124C182.159,123.887,181.814,123.591,181.814,123.251Zm1.627,3.145v-1.5c.468.113.814.408.814.748S183.909,126.284,183.441,126.4Z" transform="translate(-181 -120.854)" fill="#ffe14d"/>
      </g>
      <path id="Caminho_1716" data-name="Caminho 1716" d="M256.407,127.65v-.436a1.567,1.567,0,1,0,0-3.132V122.5c.468.113.814.408.814.748a.407.407,0,0,0,.814,0,1.754,1.754,0,0,0-1.627-1.566v-.432a.4.4,0,0,0-.407-.4v7.2A.4.4,0,0,0,256.407,127.65Zm0-2.75c.468.113.814.408.814.748s-.346.635-.814.748Z" transform="translate(-249.585 -117.635)" fill="#fb3"/>
    </g>
  </g>
</svg>
