<svg id="coleta" xmlns="http://www.w3.org/2000/svg" width="257.696" height="292.057" viewBox="0 0 257.696 292.057">
  <path id="Caminho_1606" data-name="Caminho 1606" d="M1101.2,765.05s-23.432-115.06,63.687-147.228,154.927-51.132,158.228,40.989,57.125,128.64,19.78,159.12S1112.228,843.845,1101.2,765.05Z" transform="translate(-1098.334 -569.72)" fill="#e6f1ff"/>
  <path id="Caminho_1607" data-name="Caminho 1607" d="M1233.968,565.033V783.582l13.492,7.227V591.143l82.4,45.263V834.951l14.274,7.647V624.048Z" transform="translate(-1122.507 -565.033)" fill="#bad4f5"/>
  <g id="Grupo_192" data-name="Grupo 192" transform="translate(41.27 68.382)">
    <ellipse id="Elipse_17" data-name="Elipse 17" cx="23.393" cy="11.621" rx="23.393" ry="11.621" transform="translate(92.915 163.166) rotate(-1.236)" fill="#a8c4e5" opacity="0.4" style="mix-blend-mode: multiply;isolation: isolate"/>
    <path id="Caminho_1608" data-name="Caminho 1608" d="M1282.1,651.932s8.85-9.925,20.5,2.793,17.437-.224,26.02,11.319,3.631,14.257,10.5,21.648-10.5,23.215-18.482,15.352-29.334-5.835-31.134-12.987S1282.1,651.932,1282.1,651.932Z" transform="translate(-1172.355 -648.245)" fill="#0f1a5c"/>
    <path id="Caminho_1609" data-name="Caminho 1609" d="M1280.72,658.108l-.245,15.879s9.921,6.267,14.81,2.664-1.269-20.53-7.38-19.583S1280.72,658.108,1280.72,658.108Z" transform="translate(-1172.065 -649.811)" fill="#0f1a5c"/>
    <path id="Caminho_1610" data-name="Caminho 1610" d="M1265.372,851.15l9.031-7.682a10.532,10.532,0,0,1,5.438-.292,1.661,1.661,0,0,1,1.3,1.635l0,1.688c.081,2.434-.163,2.768-1.716,3.514l-9.22,4.434a5.651,5.651,0,0,1-5.064-.172l-.349-.238C1263.558,853.2,1263.82,851.9,1265.372,851.15Z" transform="translate(-1169.131 -682.948)" fill="#0f1a5c"/>
    <path id="Caminho_1611" data-name="Caminho 1611" d="M1268.339,759.249l7.515,69.062c.318,4.317,5.048,2.92,5.467.3l2.118-62.112Z" transform="translate(-1169.902 -668.028)" fill="#ffa3b4"/>
    <path id="Caminho_1612" data-name="Caminho 1612" d="M1301.242,864.6l-2.772-10.592a10.545,10.545,0,0,1,2.1-5.025,1.661,1.661,0,0,1,2.038-.463l1.519.735c2.228.984,2.687,2.995,2.686,4.717l-.273,8.583c0,1.722.222,3.23-1.071,3.976l-.495.217C1303.681,867.495,1301.241,866.325,1301.242,864.6Z" transform="translate(-1175.273 -683.909)" fill="#0f1a5c"/>
    <path id="Caminho_1613" data-name="Caminho 1613" d="M1290.8,768.092l7.515,69.062c.318,4.317,5.048,2.921,5.467.3l2.119-62.112Z" transform="translate(-1173.905 -669.604)" fill="#ffa3b4"/>
    <path id="Caminho_1614" data-name="Caminho 1614" d="M1302.931,707.155l2.338,6.2,1.8-3.561s5.148-15.011-9.466-23.769c-5.219-3.128-10.584-6.7-14.056-8.2-5.478-2.375-9.968-1.857-14.11,2.444-.421.438-.991,14.209-.991,14.209l-.283,18.7a6.308,6.308,0,0,0-.081,1.247c-.254,4.275-1,19.535-.509,45.014a63.936,63.936,0,0,0,11.922,6.408c13.924,6,16.6,5.814,22.624,3.786,0,0,3.026-24.143,3.346-28.875.326-4.821.335-9.874-.482-12.76-1.659-5.86-1.063-6.964-4.134-10.5-.274.067-.533.123-.8.188a29.962,29.962,0,0,0,2.006-6.159Z" transform="translate(-1169.736 -653.267)" fill="#ffd040"/>
    <path id="Caminho_1615" data-name="Caminho 1615" d="M1269.527,723.913s11.922,7.51,24.759,3.119v3.756A39.272,39.272,0,0,1,1268,726.452Z" transform="translate(-1169.843 -661.731)" fill="#234577"/>
    <path id="Caminho_1616" data-name="Caminho 1616" d="M1295.165,683.749s2.239,15.69-6.115,49.944c-7.544,30.931,4.482,33.359,4.482,33.359s8.853,5.093,14.833-1.936c0,0,3.016-48.287,1.5-58S1295.165,683.749,1295.165,683.749Z" transform="translate(-1173.15 -654.573)" fill="#3e69de"/>
    <path id="Caminho_1617" data-name="Caminho 1617" d="M1281.279,677.028s-11.456,8.439-11.905,41.747c-.263,19.448-.187,30.54-.078,36.4a1.669,1.669,0,0,1-3.048.971l-.24-.352a8.216,8.216,0,0,1-1.421-4.835l1.579-61.165S1266.979,670.485,1281.279,677.028Z" transform="translate(-1169.234 -653.134)" fill="#3e69de"/>
    <path id="Caminho_1618" data-name="Caminho 1618" d="M1297.03,683.749s17.929,4.288,19.181,19.27l-4.731,13.7L1302.9,702.56Z" transform="translate(-1175.016 -654.573)" fill="#3e69de"/>
    <path id="Caminho_1619" data-name="Caminho 1619" d="M1292.422,676.221a10.2,10.2,0,0,1-6.692,1.137l.133,2.3A7.225,7.225,0,0,0,1292.422,676.221Z" transform="translate(-1173.002 -653.231)" fill="#f08b9e"/>
    <path id="Caminho_1620" data-name="Caminho 1620" d="M1293.057,668.733c-.12,4.657-6.266,6.4-10.263,3.957s-4.333-8.164-4.213-12.82,6.469-6.158,10.466-3.71S1293.176,664.078,1293.057,668.733Z" transform="translate(-1171.724 -649.449)" fill="#ffa3b4"/>
    <path id="Caminho_1621" data-name="Caminho 1621" d="M1289.509,682.7h0a3.443,3.443,0,0,1-3.625-3.229l-.561-9.682a3.442,3.442,0,0,1,3.229-3.626h0a3.443,3.443,0,0,1,3.626,3.229l.56,9.682A3.443,3.443,0,0,1,1289.509,682.7Z" transform="translate(-1172.928 -651.437)" fill="#ffa3b4"/>
    <path id="Caminho_1622" data-name="Caminho 1622" d="M1295.4,665.993s-5.851-1.133-8.6-4.369-4-5.839-2.442-6.806S1296.954,652.193,1295.4,665.993Z" transform="translate(-1172.636 -649.306)" fill="#0f1a5c"/>
    <path id="Caminho_1623" data-name="Caminho 1623" d="M1284.036,656.146a6.866,6.866,0,0,0-5.6,4.555c-1.967-3.248,1.11-12.916,9.059-6.868Z" transform="translate(-1171.6 -648.894)" fill="#0f1a5c"/>
    <path id="Caminho_1624" data-name="Caminho 1624" d="M1297.745,670.03a2.123,2.123,0,1,1-1.111-3.09A2.345,2.345,0,0,1,1297.745,670.03Z" transform="translate(-1174.412 -651.559)" fill="#ffa3b4"/>
    <path id="Ret창ngulo_26" data-name="Ret창ngulo 26" d="M3.321,0H6.9a3.32,3.32,0,0,1,3.32,3.32v0A3.32,3.32,0,0,1,6.9,6.641H3.32A3.32,3.32,0,0,1,0,3.321v0A3.321,3.321,0,0,1,3.321,0Z" transform="matrix(-0.987, 0.159, -0.159, -0.987, 108.369, 85.195)" fill="#ffa3b4"/>
    <path id="Caminho_1625" data-name="Caminho 1625" d="M1261.232,685.01s-7.9,19.834-11.925,23.222-19.29,10.562-19.29,10.562l4.363,5.719s20.31-6.508,23.574-13.94,7-17.645,7-17.645Z" transform="translate(-1163.073 -654.797)" fill="#3e69de"/>
    <g id="Grupo_191" data-name="Grupo 191" transform="translate(34.35 42.744)">
      <g id="Grupo_190" data-name="Grupo 190">
        <path id="Caminho_1626" data-name="Caminho 1626" d="M1229.249,766.449l23.935-13.819V721.666l-23.935,13.819Z" transform="translate(-1197.286 -704.075)" fill="#d6b48d"/>
        <path id="Caminho_1627" data-name="Caminho 1627" d="M1222.317,765.444l-31.963-18.454V716.026l31.963,18.454Z" transform="translate(-1190.354 -703.07)" fill="#bd9a75"/>
        <path id="Caminho_1628" data-name="Caminho 1628" d="M1246.252,717.851,1215.7,700.26l-25.344,12.957,31.963,18.454Z" transform="translate(-1190.354 -700.26)" fill="#e8c399"/>
      </g>
      <path id="Caminho_1629" data-name="Caminho 1629" d="M1248.9,732.445v-7.493l-6.079-3.92-4.558,2.408,6.382,4.107v7.4Z" transform="translate(-1198.893 -703.962)" fill="#bd9a75"/>
    </g>
    <path id="Caminho_1630" data-name="Caminho 1630" d="M1188.886,911.273c-8.371,4.889-22.911,5.606-32.475,1.6s-10.531-11.215-2.16-16.1,22.911-5.606,32.475-1.6S1197.257,906.384,1188.886,911.273Z" transform="translate(-1148.554 -691.791)" fill="#a8c4e5" opacity="0.4" style="mix-blend-mode: multiply;isolation: isolate"/>
    <path id="Caminho_1631" data-name="Caminho 1631" d="M1151.59,891.382l6.442-.812c4.311-1.958,6.325-3.427,8.246-2.317l.545.314c1.92,1.109,1.679,3.066-.538,4.349l-9.468,7.536a6.245,6.245,0,0,1-6.974-.676s-1.06-.956-.305-4.987C1149.967,892.49,1149.816,892.407,1151.59,891.382Z" transform="translate(-1148.681 -690.952)" fill="#234577"/>
    <path id="Caminho_1632" data-name="Caminho 1632" d="M1185.136,907.764l6.312,2.216c4.881.246,7.418-.125,8.673,1.718l.356.522c1.254,1.842.123,3.443-2.515,3.558l-13.73,2.3c-2.638.114-3.7-1.6-4.605-3.763a9.225,9.225,0,0,1,.937-5.464C1181.632,906.774,1183.026,907.856,1185.136,907.764Z" transform="translate(-1154.077 -694.461)" fill="#234577"/>
    <path id="Caminho_1633" data-name="Caminho 1633" d="M1188.122,908.38c0,3.016-7.336,3.016-7.336,0v-9.8h7.336Z" transform="translate(-1154.298 -692.86)" fill="#fff"/>
    <path id="Caminho_1634" data-name="Caminho 1634" d="M1157.735,890.944c-.167,2.731-7.5,2.731-7.335,0l.543-8.875h7.335Z" transform="translate(-1148.883 -689.918)" fill="#fff"/>
    <path id="Caminho_1635" data-name="Caminho 1635" d="M1153.032,779.938l8.769,1.3c-.1-.4-.183-.806-.279-1.21H1188a954.388,954.388,0,0,1-4.59,101.016c-.924,3.82-8.552,3.542-10.037,1.072a398.244,398.244,0,0,0-5.817-72.515l-8.6,59.2c-2.93,3.016-8.7,1.728-9.8-.449Z" transform="translate(-1148.66 -671.716)" fill="#29313e"/>
    <ellipse id="Elipse_18" data-name="Elipse 18" cx="7.809" cy="13.777" rx="7.809" ry="13.777" transform="translate(12.928 22.417) rotate(-7.368)" fill="#ffa3b4"/>
    <path id="Caminho_1636" data-name="Caminho 1636" d="M1189.817,693.871c-1.708,5.951-8.088,8.1-11.839,4.219s-5.406-11.858-3.7-17.81,6.132-7.627,9.883-3.742S1191.523,687.919,1189.817,693.871Z" transform="translate(-1153.019 -652.914)" fill="#ffa3b4"/>
    <path id="Caminho_1637" data-name="Caminho 1637" d="M1173.214,715.177l-.679-.151a4.286,4.286,0,0,1-3.24-5.1l2.885-12.933a4.285,4.285,0,0,1,5.1-3.24l.68.151a4.285,4.285,0,0,1,3.239,5.1l-.945,12.835C1179.743,714.133,1175.507,715.689,1173.214,715.177Z" transform="translate(-1152.232 -656.337)" fill="#ffa3b4"/>
    <path id="Caminho_1638" data-name="Caminho 1638" d="M1166.733,694.648s.645,5.607,8.61,4.484c5.715-.805,4.05-10.1,9.764-11.034,6.284-1.026-4.452-16.307-9.464-14.1S1162.9,676.082,1166.733,694.648Z" transform="translate(-1151.61 -652.797)" fill="#0f1a5c"/>
    <path id="Caminho_1639" data-name="Caminho 1639" d="M1188.185,694.377a2.726,2.726,0,1,1-1.869-3.372A2.725,2.725,0,0,1,1188.185,694.377Z" transform="translate(-1154.664 -655.847)" fill="#ffa3b4"/>
    <path id="Caminho_1640" data-name="Caminho 1640" d="M1152.869,765.878c-.224-12.272-.4-20.3-.214-32.918-.1-21.71,5.919-26.141,13.2-25.381,0,0,4.532,1.588,6.024,2.358,15.815,8.148,20.036,10.661,19.342,20.113.071,15.568-2.223,33.027-2.55,40.687C1185.407,781.5,1156.487,773.581,1152.869,765.878Z" transform="translate(-1149.271 -658.806)" fill="#f58634"/>
    <path id="Caminho_1641" data-name="Caminho 1641" d="M1183.1,705.276l-.646-1.493a7.285,7.285,0,0,0,4.2.953A6.15,6.15,0,0,1,1183.1,705.276Z" transform="translate(-1154.596 -658.143)" fill="#f08b9e"/>
    <path id="Caminho_1643" data-name="Caminho 1643" d="M1189.228,687.129l6.936-3.08a1.924,1.924,0,0,0,.291-3.356l-7.386-4.648-12.479,8.187Z" transform="translate(-1153.551 -653.2)" fill="#0f1a5c"/>
    <path id="Caminho_1644" data-name="Caminho 1644" d="M1186.33,694.155h0a.865.865,0,0,0,.863-.863v-4.231a.865.865,0,0,0-.863-.863h0a.865.865,0,0,0-.862.863v4.231A.865.865,0,0,0,1186.33,694.155Z" transform="translate(-1155.133 -655.366)" fill="#0f1a5c"/>
    <path id="Caminho_1645" data-name="Caminho 1645" d="M1192.68,688.121l-5.568,5.158s-1.254.308-1.48-.149a43.62,43.62,0,0,1-.619-4.589Z" transform="translate(-1155.052 -655.352)" fill="#0f1a5c"/>
    <path id="Caminho_1646" data-name="Caminho 1646" d="M1172.262,693.765l-5.823-1.892-.194-1.12,6.739,2Z" transform="translate(-1151.707 -655.821)" fill="#fff"/>
    <path id="Caminho_1647" data-name="Caminho 1647" d="M1171.212,672.064c7.026-2.437,19.06-2.753,17.461,12.293,0,0-6.411,7.731-16.677,5.853.011-.013.021-.023.032-.036a3.808,3.808,0,0,0-3.027-3.947c-3.158-.616-2.839,2.008-2.828,2.091-.175-.081-.348-.154-.525-.241C1165.648,688.076,1161.456,675.448,1171.212,672.064Z" transform="translate(-1151.441 -652.265)" fill="#234577"/>
    <path id="Caminho_1648" data-name="Caminho 1648" d="M1176.834,673.59c0,.329.785.6,1.753.6s1.753-.267,1.753-.6-.785-.6-1.753-.6S1176.834,673.26,1176.834,673.59Z" transform="translate(-1153.594 -652.656)" fill="#0f1a5c"/>
    <path id="Caminho_1649" data-name="Caminho 1649" d="M1190.825,684.357a17.8,17.8,0,0,1-3.538,3.034c1.082-14.192-4.784-15.611-10.459-16.239C1183.716,669.884,1192.183,671.584,1190.825,684.357Z" transform="translate(-1153.593 -652.265)" fill="#f58634"/>
    <path id="Caminho_1650" data-name="Caminho 1650" d="M1194.448,724.3l18.246,35.111-13.444.876-17.841-24.594Z" transform="translate(-1154.41 -661.8)" fill="#ffa3b4"/>
    <path id="Caminho_1651" data-name="Caminho 1651" d="M1191.591,722.108s4.177,1.8,13.692,23.371L1188,756.21l-13.8-22.881Z" transform="translate(-1153.125 -661.409)" fill="#f58634"/>
    <path id="Caminho_1652" data-name="Caminho 1652" d="M1235.917,753.368,1213.4,758.71l-10.415,5.605s-.352,10.147,15.129,3.781,19.193-9.916,19.193-9.916Z" transform="translate(-1158.254 -666.98)" fill="#ffa3b4"/>
    <rect id="Ret창ngulo_27" data-name="Ret창ngulo 27" width="11.494" height="7.463" rx="3.732" transform="translate(85.595 90.633) rotate(164.553)" fill="#ffa3b4"/>
    <path id="Caminho_1653" data-name="Caminho 1653" d="M1285.731,677.358a16.948,16.948,0,0,0,6.692-1.137s-3.3,3.954-6.541,3.737Z" transform="translate(-1173.002 -653.231)" fill="#f08b9e"/>
    <path id="Caminho_1654" data-name="Caminho 1654" d="M1168.7,707.351s-1.074,1.19,3.148,3.379c1.806.937,11.173,3.373,11.173,3.373C1183.024,710.1,1169.083,703.585,1168.7,707.351Z" transform="translate(-1152.123 -658.578)" fill="#234577"/>
    <path id="Caminho_1655" data-name="Caminho 1655" d="M1195.133,778.578l1.482-18.072-6.527-9.01-1.229,31.906S1194.035,782.951,1195.133,778.578Z" transform="translate(-1155.737 -666.647)" fill="#234577"/>
    <path id="Caminho_1656" data-name="Caminho 1656" d="M1288.319,746.791l11.669-4.824s8.144-3.423,10.545-9.168l-.32,8.264s-7.4,8.525-22.287,7.914Z" transform="translate(-1173.394 -663.315)" fill="#2139c4"/>
    <path id="Caminho_1657" data-name="Caminho 1657" d="M1312.4,706.594s1.473,24.039-12.377,31.178-23.645,6.071-23.645,6.071l-.723-7.04s12.711-4.921,14.97-9.169c3.689-6.936,8.732-23.824,8.732-23.824Z" transform="translate(-1171.207 -658.148)" fill="#3e69de"/>
    <path id="Caminho_1658" data-name="Caminho 1658" d="M1296.486,727.935l7.418-13.563-.813,4.839a11.472,11.472,0,0,1-5.056,7.716Z" transform="translate(-1174.919 -660.03)" fill="#2139c4"/>
  </g>
  <g id="Grupo_193" data-name="Grupo 193" transform="translate(90.021 50.194)">
    <path id="Caminho_1659" data-name="Caminho 1659" d="M1224.233,671.229c0,.356,1.815,6.048,3.119,10.091.479,1.485,1.968,2.146,2.359,1.049l2.558-7.158Z" transform="translate(-1210.793 -634.153)" fill="#234577"/>
    <path id="Caminho_1660" data-name="Caminho 1660" d="M1231.078,667.021l-3.453-1.711c-8.586-4.254-15.61-16.212-15.61-26.575h0c0-10.362,7.025-15.359,15.61-11.106l3.453,1.711c8.586,4.254,15.611,16.213,15.611,26.575h0C1246.69,666.277,1239.664,671.274,1231.078,667.021Z" transform="translate(-1208.616 -626.112)" fill="#234577"/>
    <path id="Caminho_1661" data-name="Caminho 1661" d="M1226.942,668.446l-3.453-1.711c-8.586-4.254-15.611-16.213-15.611-26.575h0c0-10.362,7.024-15.359,15.611-11.106l3.453,1.711c8.586,4.254,15.611,16.212,15.611,26.575h0C1242.554,667.7,1235.529,672.7,1226.942,668.446Z" transform="translate(-1207.879 -626.366)" fill="#f58634"/>
    <path id="Caminho_1662" data-name="Caminho 1662" d="M1222.469,646.364l4.605,11.873,6.09-10.966" transform="translate(-1210.479 -629.721)" fill="none" stroke="#fff" stroke-linecap="round" stroke-linejoin="round" stroke-width="1.274"/>
  </g>
</svg>
