<svg xmlns="http://www.w3.org/2000/svg" width="30" height="27.613" viewBox="0 0 30 27.613">
  <g id="cup" transform="translate(0 -20.368)">
    <g id="Grupo_13" data-name="Grupo 13" transform="translate(0.893 23.253)">
      <g id="Grupo_12" data-name="Grupo 12" transform="translate(0 0)">
        <path id="Caminho_12" data-name="Caminho 12" d="M25.783,81.053H23.26a4.916,4.916,0,0,1-2.954-.994L17,77.551a4.417,4.417,0,0,1,2.618-7.935c1.8-.021,2.826.036,2.869.038l-.113,1.984c-.01,0-1.006-.055-2.732-.035a2.43,2.43,0,0,0-1.44,4.366l3.3,2.508a2.917,2.917,0,0,0,1.753.59h2.524v1.987Z" transform="translate(-15.251 -69.611)" fill="#ffd064"/>
      </g>
    </g>
    <g id="Grupo_15" data-name="Grupo 15" transform="translate(0.894 27.159)">
      <g id="Grupo_14" data-name="Grupo 14">
        <path id="Caminho_13" data-name="Caminho 13" d="M20.32,141.76l-3.3-2.508a4.4,4.4,0,0,1-1.717-2.988,4.4,4.4,0,0,0,1.717,4.035l3.3,2.508a4.916,4.916,0,0,0,2.954.994H25.8v-1.047H23.274A4.915,4.915,0,0,1,20.32,141.76Z" transform="translate(-15.267 -136.264)" fill="#ecbe6b"/>
      </g>
    </g>
    <g id="Grupo_17" data-name="Grupo 17" transform="translate(18.583 23.253)">
      <g id="Grupo_16" data-name="Grupo 16" transform="translate(0 0)">
        <path id="Caminho_14" data-name="Caminho 14" d="M317.158,81.053h2.524a4.916,4.916,0,0,0,2.954-.994l3.3-2.508a4.417,4.417,0,0,0-2.618-7.935c-1.8-.021-2.826.036-2.869.038l.113,1.984c.01,0,1.006-.055,2.732-.035a2.43,2.43,0,0,1,1.44,4.366l-3.3,2.508a2.917,2.917,0,0,1-1.753.59h-2.524v1.987Z" transform="translate(-317.158 -69.611)" fill="#ffd064"/>
      </g>
    </g>
    <g id="Grupo_19" data-name="Grupo 19" transform="translate(18.583 24.188)">
      <g id="Grupo_18" data-name="Grupo 18">
        <path id="Caminho_15" data-name="Caminho 15" d="M327.433,87.569a4.409,4.409,0,0,0-1.459-2.014,4.408,4.408,0,0,1-.824,6.217l-3.3,2.508a4.915,4.915,0,0,1-2.954.994h-1.735v.788h2.524a4.916,4.916,0,0,0,2.954-.994l3.3-2.508A4.4,4.4,0,0,0,327.433,87.569Z" transform="translate(-317.156 -85.555)" fill="#ecbe6b"/>
      </g>
    </g>
    <g id="Grupo_20" data-name="Grupo 20" transform="translate(11.415 35.513)">
      <path id="Caminho_16" data-name="Caminho 16" d="M201.629,285.309l-1.175-.891a2.025,2.025,0,0,1-.8-1.614v-3.954H196.99V282.8a2.025,2.025,0,0,1-.8,1.614l-1.175.891a.48.48,0,0,0,.29.862h6.037A.48.48,0,0,0,201.629,285.309Z" transform="translate(-194.822 -278.851)" fill="#ffd064"/>
    </g>
    <g id="Grupo_21" data-name="Grupo 21" transform="translate(14.865 35.513)">
      <path id="Caminho_17" data-name="Caminho 17" d="M257.061,285.309l-1.175-.891a2.025,2.025,0,0,1-.8-1.614v-3.954H253.7V282.8a2.025,2.025,0,0,0,.8,1.614l1.175.891a.48.48,0,0,1-.29.862h1.38A.48.48,0,0,0,257.061,285.309Z" transform="translate(-253.704 -278.851)" fill="#ecbe6b"/>
    </g>
    <g id="Grupo_22" data-name="Grupo 22" transform="translate(7.021 20.368)">
      <path id="Caminho_18" data-name="Caminho 18" d="M135.281,20.368h-14.93a.518.518,0,0,0-.518.518v5.346a12.326,12.326,0,0,0,1.841,6.48l1.379,2.231a5.56,5.56,0,0,0,9.431.044l1.413-2.24a12.326,12.326,0,0,0,1.9-6.578V20.886a.518.518,0,0,0-.518-.518Z" transform="translate(-119.833 -20.368)" fill="#ffe07d"/>
    </g>
    <g id="Grupo_23" data-name="Grupo 23" transform="translate(9.77 20.368)">
      <path id="Caminho_19" data-name="Caminho 19" d="M179.446,20.368h-2.393v2.891a12.327,12.327,0,0,1-1.9,6.578l-1.413,2.24a5.561,5.561,0,0,1-6.991,2.105l.471.762a5.56,5.56,0,0,0,9.431.044l1.413-2.24a12.326,12.326,0,0,0,1.9-6.578V20.886a.518.518,0,0,0-.518-.518Z" transform="translate(-166.746 -20.368)" fill="#ffd064"/>
    </g>
    <g id="Grupo_45" data-name="Grupo 45" transform="translate(0 32.508)">
      <g id="Grupo_24" data-name="Grupo 24" transform="translate(1.698 4.189)">
        <path id="Caminho_20" data-name="Caminho 20" d="M42.273,308.462a14.159,14.159,0,0,1-7.953-2.447,15.162,15.162,0,0,1-5.309-6.332.451.451,0,1,1,.823-.372,13.5,13.5,0,0,0,24.879,0,.451.451,0,1,1,.823.372,15.161,15.161,0,0,1-5.309,6.332A14.159,14.159,0,0,1,42.273,308.462Z" transform="translate(-28.971 -299.046)" fill="#0dc183"/>
      </g>
      <g id="Grupo_25" data-name="Grupo 25" transform="translate(27.133 0)">
        <path id="Caminho_21" data-name="Caminho 21" d="M465.388,231.325c-.493,1.167-1.334,1.927-1.878,1.7s-.585-1.362-.092-2.529a13.766,13.766,0,0,1,2.156-2.866.211.211,0,0,1,.366.155A13.76,13.76,0,0,1,465.388,231.325Z" transform="translate(-463.074 -227.557)" fill="#aad880"/>
      </g>
      <g id="Grupo_26" data-name="Grupo 26" transform="translate(27.202 0)">
        <path id="Caminho_22" data-name="Caminho 22" d="M466.679,227.627c-.172.188-.388.427-.616.692a10.175,10.175,0,0,1-.481,2.573,3.205,3.205,0,0,1-1.334,1.656.7.7,0,0,0,.368.475c.544.23,1.385-.53,1.878-1.7a13.763,13.763,0,0,0,.552-3.543A.211.211,0,0,0,466.679,227.627Z" transform="translate(-464.248 -227.558)" fill="#80cb8e"/>
      </g>
      <g id="Grupo_27" data-name="Grupo 27" transform="translate(24.125 2.976)">
        <path id="Caminho_23" data-name="Caminho 23" d="M413.751,281.732c.037,1.2-.385,2.18-.942,2.2s-1.039-.938-1.077-2.134a13,13,0,0,1,.72-3.31.2.2,0,0,1,.375-.012,13,13,0,0,1,.924,3.259Z" transform="translate(-411.731 -278.346)" fill="#aad880"/>
      </g>
      <g id="Grupo_28" data-name="Grupo 28" transform="translate(20.378 5.964)">
        <path id="Caminho_24" data-name="Caminho 24" d="M350.178,332.1c.471,1.1.438,2.17-.075,2.389s-1.31-.494-1.782-1.594a13,13,0,0,1-.538-3.344.2.2,0,0,1,.345-.148,13,13,0,0,1,2.05,2.7Z" transform="translate(-347.783 -329.337)" fill="#aad880"/>
      </g>
      <g id="Grupo_29" data-name="Grupo 29" transform="translate(20.378 5.964)">
        <path id="Caminho_25" data-name="Caminho 25" d="M350.178,332.1a13,13,0,0,0-2.05-2.7.2.2,0,0,0-.345.148c.015.248.038.562.07.9a9.451,9.451,0,0,1,1.4,1.977,3.042,3.042,0,0,1,.256,1.985.673.673,0,0,0,.589.074C350.616,334.268,350.65,333.2,350.178,332.1Z" transform="translate(-347.783 -329.337)" fill="#80cb8e"/>
      </g>
      <g id="Grupo_30" data-name="Grupo 30" transform="translate(24.038 9.142)">
        <path id="Caminho_26" data-name="Caminho 26" d="M412,385.726c-1.13-.394-1.9-1.14-1.713-1.667s1.248-.634,2.378-.24a13,13,0,0,1,2.832,1.858.2.2,0,0,1-.124.355A13,13,0,0,1,412,385.726Z" transform="translate(-410.257 -383.581)" fill="#aad880"/>
      </g>
      <g id="Grupo_31" data-name="Grupo 31" transform="translate(20.45 11.61)">
        <path id="Caminho_27" data-name="Caminho 27" d="M350.751,427.84c-1.13-.394-1.9-1.14-1.713-1.667s1.248-.634,2.378-.24a13,13,0,0,1,2.832,1.858.2.2,0,0,1-.124.355A13,13,0,0,1,350.751,427.84Z" transform="translate(-349.011 -425.695)" fill="#aad880"/>
      </g>
      <g id="Grupo_32" data-name="Grupo 32" transform="translate(24.038 9.598)">
        <path id="Caminho_28" data-name="Caminho 28" d="M415.492,393c-.274-.221-.658-.523-1.072-.821a11.976,11.976,0,0,1-3.111-.306,4.167,4.167,0,0,1-1.018-.512c0,.007-.006.014-.009.022-.184.527.583,1.273,1.713,1.667a13,13,0,0,0,3.374.306A.2.2,0,0,0,415.492,393Z" transform="translate(-410.255 -391.363)" fill="#80cb8e"/>
      </g>
      <g id="Grupo_33" data-name="Grupo 33" transform="translate(20.45 12.066)">
        <path id="Caminho_29" data-name="Caminho 29" d="M354.248,435.118c-.274-.221-.658-.523-1.072-.821a11.974,11.974,0,0,1-3.111-.306,4.164,4.164,0,0,1-1.018-.512c0,.007-.006.014-.009.022-.184.527.583,1.273,1.713,1.667a13,13,0,0,0,3.374.305A.2.2,0,0,0,354.248,435.118Z" transform="translate(-349.01 -433.478)" fill="#80cb8e"/>
      </g>
      <g id="Grupo_34" data-name="Grupo 34" transform="translate(0 0)">
        <path id="Caminho_30" data-name="Caminho 30" d="M.553,231.325c.493,1.167,1.334,1.927,1.878,1.7s.585-1.362.092-2.529a13.763,13.763,0,0,0-2.156-2.866.211.211,0,0,0-.366.155,13.761,13.761,0,0,0,.552,3.543Z" transform="translate(-0.001 -227.557)" fill="#aad880"/>
      </g>
      <g id="Grupo_35" data-name="Grupo 35" transform="translate(0 0)">
        <path id="Caminho_31" data-name="Caminho 31" d="M2.522,230.492a13.763,13.763,0,0,0-2.156-2.866.211.211,0,0,0-.366.155c.014.256.036.578.067.929a10.367,10.367,0,0,1,1.546,2.181,3.252,3.252,0,0,1,.266,2.086.671.671,0,0,0,.551.044c.544-.23.585-1.362.092-2.529Z" transform="translate(0 -227.557)" fill="#80cb8e"/>
      </g>
      <g id="Grupo_36" data-name="Grupo 36" transform="translate(3.853 2.976)">
        <path id="Caminho_32" data-name="Caminho 32" d="M65.76,281.732c-.037,1.2.385,2.18.942,2.2s1.039-.938,1.077-2.134a13,13,0,0,0-.72-3.31.2.2,0,0,0-.375-.012,13,13,0,0,0-.924,3.259Z" transform="translate(-65.757 -278.346)" fill="#aad880"/>
      </g>
      <g id="Grupo_37" data-name="Grupo 37" transform="translate(24.573 2.976)">
        <path id="Caminho_33" data-name="Caminho 33" d="M420.956,281.732a13,13,0,0,0-.923-3.259.2.2,0,0,0-.375.012c-.078.243-.175.555-.273.9a9.442,9.442,0,0,1,.585,2.351,3.088,3.088,0,0,1-.47,1.922.667.667,0,0,0,.514.275C420.571,283.912,420.993,282.928,420.956,281.732Z" transform="translate(-419.384 -278.347)" fill="#80cb8e"/>
      </g>
      <g id="Grupo_38" data-name="Grupo 38" transform="translate(4.325 2.976)">
        <path id="Caminho_34" data-name="Caminho 34" d="M74.649,278.485a.2.2,0,0,0-.375-.012c-.1.245-.217.561-.338.908a9.552,9.552,0,0,1,.447,2.414,3.154,3.154,0,0,1-.562,1.859.646.646,0,0,0,.472.275c.557.017,1.039-.938,1.077-2.134A13,13,0,0,0,74.649,278.485Z" transform="translate(-73.82 -278.346)" fill="#80cb8e"/>
      </g>
      <g id="Grupo_39" data-name="Grupo 39" transform="translate(6.894 5.964)">
        <path id="Caminho_35" data-name="Caminho 35" d="M117.99,332.1c-.471,1.1-.438,2.17.075,2.389s1.31-.494,1.782-1.594a13,13,0,0,0,.538-3.344.2.2,0,0,0-.345-.148A13,13,0,0,0,117.99,332.1Z" transform="translate(-117.657 -329.337)" fill="#aad880"/>
      </g>
      <g id="Grupo_40" data-name="Grupo 40" transform="translate(6.95 5.964)">
        <path id="Caminho_36" data-name="Caminho 36" d="M120.944,329.4c-.184.2-.42.458-.667.745a9.328,9.328,0,0,1-.459,2.345,3.157,3.157,0,0,1-1.2,1.524.67.67,0,0,0,.351.471c.513.22,1.31-.494,1.782-1.594a13,13,0,0,0,.538-3.344A.2.2,0,0,0,120.944,329.4Z" transform="translate(-118.618 -329.337)" fill="#80cb8e"/>
      </g>
      <g id="Grupo_41" data-name="Grupo 41" transform="translate(0.649 9.142)">
        <path id="Caminho_37" data-name="Caminho 37" d="M14.651,385.726c1.13-.394,1.9-1.14,1.713-1.667s-1.248-.634-2.378-.24a13,13,0,0,0-2.832,1.858.2.2,0,0,0,.124.355,13,13,0,0,0,3.374-.306Z" transform="translate(-11.079 -383.581)" fill="#aad880"/>
      </g>
      <g id="Grupo_42" data-name="Grupo 42" transform="translate(4.238 11.61)">
        <path id="Caminho_38" data-name="Caminho 38" d="M75.9,427.84c1.13-.394,1.9-1.14,1.713-1.667s-1.248-.634-2.378-.24a13,13,0,0,0-2.832,1.858.2.2,0,0,0,.124.355A13,13,0,0,0,75.9,427.84Z" transform="translate(-72.325 -425.695)" fill="#aad880"/>
      </g>
      <g id="Grupo_43" data-name="Grupo 43" transform="translate(0.649 9.189)">
        <path id="Caminho_39" data-name="Caminho 39" d="M16.365,384.819a.767.767,0,0,0-.613-.43,2.794,2.794,0,0,1-1.694,1.272,9.04,9.04,0,0,1-2.286.292c-.235.179-.447.347-.617.484a.2.2,0,0,0,.124.355,13,13,0,0,0,3.374-.306C15.781,386.092,16.548,385.346,16.365,384.819Z" transform="translate(-11.08 -384.389)" fill="#80cb8e"/>
      </g>
      <g id="Grupo_44" data-name="Grupo 44" transform="translate(4.238 11.657)">
        <path id="Caminho_40" data-name="Caminho 40" d="M77.61,426.934A.767.767,0,0,0,77,426.5a2.794,2.794,0,0,1-1.694,1.272,9.04,9.04,0,0,1-2.286.292c-.235.179-.447.347-.617.484a.2.2,0,0,0,.124.355A13,13,0,0,0,75.9,428.6C77.027,428.207,77.794,427.461,77.61,426.934Z" transform="translate(-72.325 -426.504)" fill="#80cb8e"/>
      </g>
    </g>
    <g id="Grupo_46" data-name="Grupo 46" transform="translate(11.487 24.549)">
      <circle id="Elipse_4" data-name="Elipse 4" cx="3.378" cy="3.378" r="3.378" transform="translate(0 0)" fill="#ecbe6b"/>
    </g>
    <g id="Grupo_47" data-name="Grupo 47" transform="translate(11.73 24.792)">
      <path id="Caminho_41" data-name="Caminho 41" d="M204.585,95.87a3.378,3.378,0,0,1-4.393,4.393,3.378,3.378,0,1,0,4.393-4.393Z" transform="translate(-200.192 -95.87)" fill="#eab14d"/>
    </g>
    <g id="Grupo_48" data-name="Grupo 48" transform="translate(13.216 26.302)">
      <path id="Caminho_42" data-name="Caminho 42" d="M227.458,121.763l.354.717a.221.221,0,0,0,.166.121l.791.115a.221.221,0,0,1,.122.376l-.572.558a.221.221,0,0,0-.063.2l.135.788a.221.221,0,0,1-.32.233l-.707-.372a.221.221,0,0,0-.205,0l-.707.372a.221.221,0,0,1-.32-.233l.135-.788a.22.22,0,0,0-.063-.2l-.572-.558a.221.221,0,0,1,.122-.376l.791-.115a.221.221,0,0,0,.166-.121l.354-.717A.221.221,0,0,1,227.458,121.763Z" transform="translate(-225.563 -121.64)" fill="#ffe07d"/>
    </g>
    <g id="Grupo_50" data-name="Grupo 50" transform="translate(15.267 27.335)">
      <g id="Grupo_49" data-name="Grupo 49" transform="translate(0 0)">
        <path id="Caminho_43" data-name="Caminho 43" d="M261.839,139.7a.221.221,0,0,0-.122-.376l-.288-.042-.769.749a.327.327,0,0,0-.094.289l.173,1.006.28.147a.221.221,0,0,0,.32-.233l-.135-.788a.22.22,0,0,1,.063-.2Z" transform="translate(-260.561 -139.277)" fill="#ffd064"/>
      </g>
    </g>
    <g id="Grupo_51" data-name="Grupo 51" transform="translate(10.119 42.833)">
      <path id="Caminho_44" data-name="Caminho 44" d="M181.98,408.928h-8.767a.5.5,0,0,1-.5-.5v-4.145a.5.5,0,0,1,.5-.5h8.767a.5.5,0,0,1,.5.5v4.145A.5.5,0,0,1,181.98,408.928Z" transform="translate(-172.712 -403.78)" fill="#407093"/>
    </g>
    <g id="Grupo_52" data-name="Grupo 52" transform="translate(10.119 42.833)">
      <path id="Caminho_45" data-name="Caminho 45" d="M181.981,403.779h-.95v3.2a.5.5,0,0,1-.5.5h-7.82v.95a.5.5,0,0,0,.5.5h8.769a.5.5,0,0,0,.5-.5v-4.147A.5.5,0,0,0,181.981,403.779Z" transform="translate(-172.712 -403.779)" fill="#365e7d"/>
    </g>
  </g>
</svg>
