<svg xmlns="http://www.w3.org/2000/svg" width="97.21" height="97.21" viewBox="0 0 97.21 97.21">
  <path id="flexa-direta-baixo" d="M0,3.569A51.006,51.006,0,0,0,14.983,39.741,50.982,50.982,0,0,0,31.242,50.7a50.817,50.817,0,0,0,19.523,4.017l4.752-3.564-4.765-3.574A43.72,43.72,0,0,1,20.031,34.693,43.73,43.73,0,0,1,7.138,3.569,3.569,3.569,0,0,0,0,3.569Zm43.541,64a3.569,3.569,0,0,1,.714-5L59.483,51.155,44.255,39.734a3.569,3.569,0,0,1,4.283-5.71L67.572,48.3a3.569,3.569,0,0,1,0,5.71L48.538,68.286a3.569,3.569,0,0,1-5-.714Z" transform="translate(0 44.352) rotate(-40)" fill="#ffd040"/>
</svg>
