<svg xmlns="http://www.w3.org/2000/svg" width="62" height="54" viewBox="0 0 62 54">
  <g id="logistics" transform="translate(-1 -5)">
    <g id="Grupo_248" data-name="Grupo 248">
      <g id="Grupo_224" data-name="Grupo 224">
        <path id="Caminho_1687" data-name="Caminho 1687" d="M38,36v4H3a1,1,0,0,1-1-1V37a1,1,0,0,1,1-1H38Z" fill="#fc6e51"/>
      </g>
      <g id="Grupo_225" data-name="Grupo 225">
        <path id="Caminho_1688" data-name="Caminho 1688" d="M38,40V52H24a6,6,0,0,0-12,0H6a2.006,2.006,0,0,1-2-2V48H9l1-4H4V40Z" fill="#ff826e"/>
      </g>
      <g id="Grupo_226" data-name="Grupo 226">
        <path id="Caminho_1689" data-name="Caminho 1689" d="M62,47v3a2.006,2.006,0,0,1-2,2H56a5.985,5.985,0,0,0-2-4.47V34l-.97-5.18a1,1,0,0,0-.98-.82H43a1,1,0,0,0-1,1V52H38V28a4.01,4.01,0,0,1,4-4H52.61a4,4,0,0,1,3.95,3.34L58,36l1.79.89A4.02,4.02,0,0,1,62,40.47V42H58v3Z" fill="#ff826e"/>
      </g>
      <g id="Grupo_227" data-name="Grupo 227">
        <path id="Caminho_1690" data-name="Caminho 1690" d="M54,38v9.53A6,6,0,0,0,44,52H42V38H54Z" fill="#fc6e51"/>
      </g>
      <g id="Grupo_228" data-name="Grupo 228">
        <path id="Caminho_1691" data-name="Caminho 1691" d="M62,42v5l-4-2V42Z" fill="#fcd770"/>
      </g>
      <g id="Grupo_229" data-name="Grupo 229">
        <path id="Caminho_1692" data-name="Caminho 1692" d="M10,44,9,48H4V44Z" fill="#fcd770"/>
      </g>
      <g id="Grupo_230" data-name="Grupo 230">
        <path id="Caminho_1693" data-name="Caminho 1693" d="M54,47.53A6,6,0,1,1,50,46,5.985,5.985,0,0,1,54,47.53Z" fill="#969faa"/>
      </g>
      <g id="Grupo_231" data-name="Grupo 231">
        <path id="Caminho_1694" data-name="Caminho 1694" d="M18,46a6,6,0,1,1-6,6A6,6,0,0,1,18,46Z" fill="#969faa"/>
      </g>
      <g id="Grupo_232" data-name="Grupo 232">
        <circle id="Elipse_19" data-name="Elipse 19" cx="2" cy="2" r="2" transform="translate(48 50)" fill="#ccd1d9"/>
      </g>
      <g id="Grupo_233" data-name="Grupo 233">
        <circle id="Elipse_20" data-name="Elipse 20" cx="2" cy="2" r="2" transform="translate(16 50)" fill="#ccd1d9"/>
      </g>
      <g id="Grupo_234" data-name="Grupo 234">
        <path id="Caminho_1695" data-name="Caminho 1695" d="M48,35a3,3,0,0,0,3,3H42V29a1,1,0,0,1,1-1h9.05a1,1,0,0,1,.98.82L54,34H49A1,1,0,0,0,48,35Z" fill="#69d6f4"/>
      </g>
      <g id="Grupo_235" data-name="Grupo 235">
        <path id="Caminho_1696" data-name="Caminho 1696" d="M54,34v4H51a3,3,0,0,1-3-3,1,1,0,0,1,1-1Z" fill="#aab2bd"/>
      </g>
      <g id="Grupo_236" data-name="Grupo 236">
        <path id="Caminho_1697" data-name="Caminho 1697" d="M4,26H16V36H4Z" fill="#d3a06c"/>
      </g>
      <g id="Grupo_237" data-name="Grupo 237">
        <path id="Caminho_1698" data-name="Caminho 1698" d="M16,26H28V36H16Z" fill="#d3a06c"/>
      </g>
      <g id="Grupo_238" data-name="Grupo 238">
        <path id="Caminho_1699" data-name="Caminho 1699" d="M28,26H40V36H28Z" fill="#d3a06c"/>
      </g>
      <g id="Grupo_239" data-name="Grupo 239">
        <path id="Caminho_1700" data-name="Caminho 1700" d="M10,16H22V26H10Z" fill="#d3a06c"/>
      </g>
      <g id="Grupo_240" data-name="Grupo 240">
        <path id="Caminho_1701" data-name="Caminho 1701" d="M22,16H34V26H22Z" fill="#d3a06c"/>
      </g>
      <g id="Grupo_241" data-name="Grupo 241">
        <path id="Caminho_1702" data-name="Caminho 1702" d="M16,6H28V16H16Z" fill="#d3a06c"/>
      </g>
      <g id="Grupo_242" data-name="Grupo 242">
        <path id="Caminho_1703" data-name="Caminho 1703" d="M20,6h4v4H20Z" fill="#b27946"/>
      </g>
      <g id="Grupo_243" data-name="Grupo 243">
        <path id="Caminho_1704" data-name="Caminho 1704" d="M18,16v4H14V16h4Z" fill="#b27946"/>
      </g>
      <g id="Grupo_244" data-name="Grupo 244">
        <path id="Caminho_1705" data-name="Caminho 1705" d="M30,16v4H26V16h4Z" fill="#b27946"/>
      </g>
      <g id="Grupo_245" data-name="Grupo 245">
        <path id="Caminho_1706" data-name="Caminho 1706" d="M34,26h4.54A3.989,3.989,0,0,0,38,28v2H32V26Z" fill="#b27946"/>
      </g>
      <g id="Grupo_246" data-name="Grupo 246">
        <path id="Caminho_1707" data-name="Caminho 1707" d="M24,26v4H20V26h4Z" fill="#b27946"/>
      </g>
      <g id="Grupo_247" data-name="Grupo 247">
        <path id="Caminho_1708" data-name="Caminho 1708" d="M12,26v4H8V26h4Z" fill="#b27946"/>
      </g>
    </g>
    <g id="Grupo_249" data-name="Grupo 249">
      <path id="Caminho_1709" data-name="Caminho 1709" d="M50,49a3,3,0,1,0,3,3A3,3,0,0,0,50,49Zm0,4a1,1,0,1,1,1-1A1,1,0,0,1,50,53Z"/>
      <path id="Caminho_1710" data-name="Caminho 1710" d="M18,49a3,3,0,1,0,3,3A3,3,0,0,0,18,49Zm0,4a1,1,0,1,1,1-1A1,1,0,0,1,18,53Z"/>
      <path id="Caminho_1711" data-name="Caminho 1711" d="M60.236,36,58.9,35.333l-1.359-8.154A4.984,4.984,0,0,0,52.611,23H42a4.977,4.977,0,0,0-3.974,2H35V15H29V5H15V15H9V25H3V35a2,2,0,0,0-2,2v2a2,2,0,0,0,2,2v9a3,3,0,0,0,3,3h5.08a6.991,6.991,0,0,0,13.84,0H43.08a6.991,6.991,0,0,0,13.84,0H60a3,3,0,0,0,3-3V40.472A4.974,4.974,0,0,0,60.236,36ZM61,45.382l-2-1V43h2ZM21,27h2v2H21Zm4,4V27h2v8H17V27h2v4Zm12,4H29V27h2v4h6Zm0-7v1H33V27h4.1a5,5,0,0,0-.1,1Zm-4-3H23V17h2v4h6V17h2Zm-6-8h2v2H27ZM21,7h2V9H21ZM17,7h2v4h6V7h2v8H17ZM15,17h2v2H15Zm-4,0h2v4h6V17h2v8H11ZM9,27h2v2H9ZM5,27H7v4h6V27h2v8H5ZM3,37H37v2H3Zm2,8H8.719l-.5,2H5Zm0,5V49H9.781l1.5-6H5V41H37V51H24.92a6.991,6.991,0,0,0-13.84,0H6A1,1,0,0,1,5,50Zm13,7a5,5,0,1,1,5-5A5.006,5.006,0,0,1,18,57ZM49,35h4v2H51A2,2,0,0,1,49,35Zm0-2a2,2,0,0,0-2,2,3.959,3.959,0,0,0,.556,2H43V29h9.046l.749,4Zm-6,6H53v6.685A6.974,6.974,0,0,0,43.08,51H43Zm7,18a5,5,0,1,1,5-5A5.006,5.006,0,0,1,50,57Zm10-6H56.92A6.977,6.977,0,0,0,55,47.111V34l-.987-5.366A2,2,0,0,0,52.047,27H43a2,2,0,0,0-2,2V51H39V28a3,3,0,0,1,3-3H52.611a2.991,2.991,0,0,1,2.959,2.507l1.527,9.16,2.244,1.122A2.985,2.985,0,0,1,61,40.472V41H57v4.618l4,2V50A1,1,0,0,1,60,51Z"/>
    </g>
  </g>
</svg>
