<svg xmlns="http://www.w3.org/2000/svg" width="380" height="94.575" viewBox="0 0 380 94.575">
  <g id="logo-smart" transform="translate(-744.469 -484.637)">
    <g id="Group_1" data-name="Group 1" transform="translate(744.469 484.637)">
      <path id="Path_9" data-name="Path 9" d="M763.449,526.829,777.9,515.952l-.125-7.574-24,18.37,28.59,21.271.063,21.272-37.926-28-.031-7.333,33.645,25.663.186-7.574-33.74-24.973,37.714-28.685.281,21.452L768.2,530.319Z" transform="translate(-744.469 -486.553)" fill="#2a5072" fill-rule="evenodd"/>
      <path id="Path_10" data-name="Path 10" d="M822.259,522.572l-19.275-14.508.166-10.1,32.019,24.5-38.14,28.374-.086,28.375,50.59-37.346.041-9.781L802.7,566.32l-.248-10.1,45-33.31-50.3-38.27-.374,28.614,19.148,13.973Z" transform="translate(-751.754 -484.637)" fill="#f58634" fill-rule="evenodd"/>
    </g>
    <g id="Grupo_2" data-name="Grupo 2" transform="translate(852.953 507.19)" style="isolation: isolate">
      <path id="Caminho_11" data-name="Caminho 11" d="M888.6,519.036a5.855,5.855,0,0,0,.277-1.743c0-1.345-.871-1.741-3.88-1.741s-4.079.276-4.792,1.148a5.492,5.492,0,0,0-.95,3.088c0,.872.356,1.267,1.227,1.544a33.059,33.059,0,0,0,4.752.4c4.157.237,5.544.553,6.731,1.425a3.647,3.647,0,0,1,1.426,3.128,23.53,23.53,0,0,1-.872,4.871c-.911,3.088-2.137,4.593-4.514,5.583-1.7.674-3.644.911-7.563.911-5.148,0-7.048-.317-8.553-1.387a4.069,4.069,0,0,1-1.386-3.207,18.308,18.308,0,0,1,.554-4.078h5.821a7.414,7.414,0,0,0-.277,1.979,1.713,1.713,0,0,0,.673,1.426c.633.4,1.069.435,4.395.435,2.218,0,2.653-.04,3.406-.4a2.885,2.885,0,0,0,1.623-2.06,8.4,8.4,0,0,0,.356-1.98,1.419,1.419,0,0,0-.99-1.465c-.515-.159-.515-.159-4.633-.435-4.276-.277-5.425-.476-6.653-1.148a3.783,3.783,0,0,1-1.861-3.525c0-3.049,1.227-6.889,2.732-8.474,1.783-1.861,4.356-2.5,10.336-2.5,4.474,0,6.3.318,7.682,1.387a4.156,4.156,0,0,1,1.307,3.207,14.157,14.157,0,0,1-.515,3.6Z" transform="translate(-870.507 -510.839)" fill="#2a5072"/>
      <path id="Caminho_12" data-name="Caminho 12" d="M930.41,537.482h-6.019l2.376-11.088c.436-2.1.673-3.049,1.861-7.6l.674-2.535h-.2l-1.268,2.456c-2.257,4.276-2.851,5.386-3.959,7.286l-6.653,11.484h-5.346l-1.861-11.445c-.317-2.018-.435-2.89-.911-7.285l-.238-2.415h-.2l-.4,2.493c-.713,4.554-.911,5.781-1.308,7.564l-2.336,11.088h-6.019l5.623-26.412h9.623l1.465,9.86c.237,1.624.317,2.416.673,6.138l.158,2.059h.238l1.029-2.059c1.782-3.6,2.257-4.514,3.168-6.1l5.583-9.9h9.86Z" transform="translate(-874.421 -510.871)" fill="#2a5072"/>
      <path id="Caminho_13" data-name="Caminho 13" d="M945.853,532.691l-2.5,4.792h-6.336L951,511.07h9.108L963,537.482h-6.257l-.475-4.792Zm8.83-17.027-6.534,12.552h7.761Z" transform="translate(-879.771 -510.871)" fill="#2a5072"/>
      <path id="Caminho_14" data-name="Caminho 14" d="M975.213,511.07h13.146c2.733,0,4.4.277,5.5.871a4.264,4.264,0,0,1,2.178,3.959c0,2.614-1.188,6.89-2.336,8.514-.95,1.307-2.019,1.861-4.593,2.415l-.04.2c2.534.158,3.762,1.307,3.762,3.445a6.421,6.421,0,0,1-.238,1.741l-1.109,5.268H985.31l.871-4.118a6.33,6.33,0,0,0,.2-1.585c0-1.544-.832-2.178-2.852-2.178h-6.138l-1.7,7.881h-6.1Zm9.582,13.345c2.1,0,3.129-.555,3.762-2.06a17.405,17.405,0,0,0,.911-4.157c0-1.465-.674-1.9-2.97-1.9h-6.3l-1.742,8.118Z" transform="translate(-884.307 -510.871)" fill="#2a5072"/>
      <path id="Caminho_15" data-name="Caminho 15" d="M1010.5,537.482h-6.1l4.475-21.145h-7.128l1.109-5.267h20.75l-1.148,5.267h-7.444Z" transform="translate(-888.785 -510.871)" fill="#2a5072"/>
    </g>
    <g id="Grupo_3" data-name="Grupo 3" transform="translate(985.771 507.19)">
      <path id="Caminho_16" data-name="Caminho 16" d="M1034.242,521.88H1046l-.911,4.316h-11.76l-1.346,6.257h12.671l-1.069,5.029h-18.77l5.624-26.412h18.571l-1.069,5.029h-12.474Z" transform="translate(-1024.817 -510.871)" fill="#f58634"/>
      <path id="Caminho_17" data-name="Caminho 17" d="M1076.36,537.482h-10.294l-3.129-12.79c-.356-1.5-.515-2.416-1.188-6.3l-.4-2.1h-.238c-.634,3.643-1.148,6.455-1.544,8.4l-2.693,12.79H1050.9l5.623-26.412h10.217l2.89,12.236c.713,2.969.713,3.009,1.821,8.791h.238l.356-2.06c.515-2.97.554-3.365,1.148-6.138l2.733-12.829h6.059Z" transform="translate(-1028.45 -510.871)" fill="#f58634"/>
      <path id="Caminho_18" data-name="Caminho 18" d="M1114.914,511.07l-13.741,26.412h-9.344l-2.337-26.412h6.217l1.228,12.513c.276,2.653.317,3.682.593,8.711h.159c2.495-5.188,2.731-5.623,4.316-8.711l6.573-12.513Z" transform="translate(-1033.825 -510.871)" fill="#f58634"/>
      <path id="Caminho_19" data-name="Caminho 19" d="M1120.109,537.482h-6.1l5.622-26.412h6.1Z" transform="translate(-1037.24 -510.871)" fill="#f58634"/>
      <path id="Caminho_20" data-name="Caminho 20" d="M1150.3,511.751c2.177,1.029,3.208,2.812,3.208,5.583a67.183,67.183,0,0,1-2.654,13.068c-1.188,3.128-2.771,4.949-5.385,6.1-1.9.832-4.158,1.149-8.2,1.149-3.959,0-5.663-.277-7.246-1.109-1.861-1.03-2.811-2.772-2.811-5.306a62.109,62.109,0,0,1,2.772-13.266,9.53,9.53,0,0,1,5.464-6.019c1.9-.831,3.96-1.109,8.237-1.109C1147.209,510.839,1148.912,511.077,1150.3,511.751Zm-13.741,5.979c-.713.99-.99,1.821-1.9,5.979a32.838,32.838,0,0,0-1.03,5.979c0,2.336.792,2.732,5.346,2.732,4.2,0,5.266-.752,6.374-4.594a68.466,68.466,0,0,0,1.743-8.989c0-1.267-.356-1.98-1.148-2.337-.713-.356-1.5-.435-3.921-.435C1138.618,516.067,1137.548,516.384,1136.558,517.73Z" transform="translate(-1039.078 -510.839)" fill="#f58634"/>
      <path id="Caminho_21" data-name="Caminho 21" d="M1175.623,519.036a5.856,5.856,0,0,0,.277-1.743c0-1.345-.871-1.741-3.881-1.741s-4.078.276-4.791,1.148a5.487,5.487,0,0,0-.951,3.088c0,.872.356,1.267,1.228,1.544a33.059,33.059,0,0,0,4.752.4c4.157.237,5.543.553,6.731,1.425a3.649,3.649,0,0,1,1.425,3.128,23.584,23.584,0,0,1-.871,4.871c-.911,3.088-2.138,4.593-4.514,5.583-1.7.674-3.643.911-7.563.911-5.148,0-7.048-.317-8.553-1.387a4.07,4.07,0,0,1-1.387-3.207,18.327,18.327,0,0,1,.555-4.078h5.821a7.386,7.386,0,0,0-.278,1.979,1.713,1.713,0,0,0,.674,1.426c.633.4,1.069.435,4.395.435,2.217,0,2.653-.04,3.405-.4a2.883,2.883,0,0,0,1.624-2.06,8.451,8.451,0,0,0,.356-1.98,1.419,1.419,0,0,0-.991-1.465c-.514-.159-.514-.159-4.632-.435-4.276-.277-5.425-.476-6.653-1.148a3.783,3.783,0,0,1-1.861-3.525c0-3.049,1.227-6.889,2.732-8.474,1.782-1.861,4.355-2.5,10.336-2.5,4.474,0,6.3.318,7.681,1.387a4.156,4.156,0,0,1,1.307,3.207,14.165,14.165,0,0,1-.516,3.6Z" transform="translate(-1043.3 -510.839)" fill="#f58634"/>
    </g>
    <g id="Grupo_4" data-name="Grupo 4" transform="translate(852.416 540.298)" style="isolation: isolate">
      <path id="Caminho_22" data-name="Caminho 22" d="M873.529,562.012l-1.03,1.979h-2.616l5.772-10.906h3.761l1.194,10.906h-2.584l-.2-1.979Zm3.646-7.031-2.7,5.184h3.2Z" transform="translate(-869.883 -549.831)" fill="#2a5072"/>
      <path id="Caminho_23" data-name="Caminho 23" d="M890.6,563.991h-2.519l2.322-10.906h2.518Z" transform="translate(-872.418 -549.831)" fill="#2a5072"/>
      <path id="Caminho_24" data-name="Caminho 24" d="M903.672,563.991H899.42l-1.292-5.281c-.147-.622-.213-1-.491-2.6l-.164-.867h-.1c-.262,1.5-.474,2.664-.638,3.466l-1.112,5.281h-2.469l2.322-10.906H899.7l1.194,5.052c.294,1.227.294,1.242.752,3.63h.1l.147-.85c.213-1.227.229-1.391.474-2.535l1.128-5.3h2.5Z" transform="translate(-873.125 -549.831)" fill="#2a5072"/>
      <path id="Caminho_25" data-name="Caminho 25" d="M911.876,563.991h-2.518l1.848-8.732h-2.944l.458-2.174h8.569l-.474,2.174H913.74Z" transform="translate(-875.228 -549.831)" fill="#2a5072"/>
      <path id="Caminho_26" data-name="Caminho 26" d="M920.666,557.549h4.856l-.376,1.783H920.29l-.556,2.583h5.232l-.442,2.077h-7.751l2.322-10.906h7.669l-.442,2.076h-5.151Z" transform="translate(-876.414 -549.831)" fill="#2a5072"/>
      <path id="Caminho_27" data-name="Caminho 27" d="M930.54,561.816h4.823l-.474,2.175h-7.342l2.322-10.906h2.518Z" transform="translate(-877.914 -549.831)" fill="#2a5072"/>
      <path id="Caminho_28" data-name="Caminho 28" d="M939.793,563.991h-2.518l2.322-10.906h2.518Z" transform="translate(-879.269 -549.831)" fill="#2a5072"/>
      <path id="Caminho_29" data-name="Caminho 29" d="M953.043,557.993a33.553,33.553,0,0,1-.8,3.613,3.364,3.364,0,0,1-2.388,2.24,13.6,13.6,0,0,1-3.025.213c-2.044,0-2.764-.164-3.434-.769a2.628,2.628,0,0,1-.687-1.9,27.742,27.742,0,0,1,1.227-5.641,4.042,4.042,0,0,1,2.4-2.419,9.292,9.292,0,0,1,3.3-.343,8.339,8.339,0,0,1,2.649.229,1.711,1.711,0,0,1,1.258,1.847,7.043,7.043,0,0,1-.164,1.341h-2.534c.016-.213.033-.31.033-.457,0-.688-.36-.851-1.93-.851-2.076,0-2.5.327-2.943,2.322a21.54,21.54,0,0,0-.638,3.433c0,.835.474,1.1,2.028,1.1,2.027,0,2.452-.326,2.779-2.174h-2.387l.392-1.783Z" transform="translate(-880.026 -549.818)" fill="#2a5072"/>
      <path id="Caminho_30" data-name="Caminho 30" d="M958.817,557.022h4.856L963.3,558.8h-4.856l-.556,2.583h5.232l-.441,2.077h-7.751l2.322-10.906h7.668l-.441,2.076h-5.151ZM964.164,551l-.588.867-2.29-.965-2.648.965-.213-.867,3.205-1.7Z" transform="translate(-881.727 -549.305)" fill="#2a5072"/>
      <path id="Caminho_31" data-name="Caminho 31" d="M976.213,563.991h-4.251l-1.292-5.281c-.147-.622-.213-1-.491-2.6l-.164-.867h-.1c-.262,1.5-.474,2.664-.638,3.466l-1.112,5.281H965.7l2.322-10.906h4.219l1.194,5.052c.294,1.227.294,1.242.752,3.63h.1l.147-.85c.213-1.227.229-1.391.475-2.535l1.128-5.3h2.5Z" transform="translate(-883.228 -549.831)" fill="#2a5072"/>
      <path id="Caminho_32" data-name="Caminho 32" d="M989.935,559.972c-.049.164-.065.294-.082.343-.424,1.963-.8,2.6-1.848,3.189-.867.474-1.472.556-3.826.556-1.716,0-2.339-.114-2.911-.54a2.453,2.453,0,0,1-.882-2.028,31.886,31.886,0,0,1,.752-4.349c.458-2,1.029-2.877,2.223-3.549.883-.473,1.684-.6,3.891-.6,1.75,0,2.24.082,2.846.491a1.871,1.871,0,0,1,.671,1.57,9.124,9.124,0,0,1-.245,1.8h-2.5a3.732,3.732,0,0,0,.13-.883c0-.653-.36-.818-1.766-.818-1.553,0-2.092.262-2.4,1.177a27.013,27.013,0,0,0-.932,4.529c0,.8.442,1.047,1.881,1.047,1.864,0,2.191-.244,2.5-1.929Z" transform="translate(-885.273 -549.818)" fill="#2a5072"/>
      <path id="Caminho_33" data-name="Caminho 33" d="M994.455,563.991h-2.518l2.322-10.906h2.518Z" transform="translate(-886.882 -549.831)" fill="#2a5072"/>
      <path id="Caminho_34" data-name="Caminho 34" d="M999.118,562.012l-1.029,1.979h-2.617l5.772-10.906H1005l1.195,10.906h-2.584l-.2-1.979Zm3.646-7.031-2.7,5.184h3.2Z" transform="translate(-887.375 -549.831)" fill="#2a5072"/>
      <path id="Caminho_35" data-name="Caminho 35" d="M1016,553.085h5.543a8.014,8.014,0,0,1,1.733.2,2.377,2.377,0,0,1,1.734,2.469c0,.768,0,.784-.6,3.482a9.369,9.369,0,0,1-.867,2.649c-.85,1.487-2.142,2.109-4.366,2.109h-5.495Zm3.3,8.747a2.012,2.012,0,0,0,2.191-1.389,19.778,19.778,0,0,0,.834-4.039c0-.8-.442-1.128-1.554-1.128h-2.714l-1.406,6.557Z" transform="translate(-889.91 -549.831)" fill="#2a5072"/>
      <path id="Caminho_36" data-name="Caminho 36" d="M1036.583,553.366a2.278,2.278,0,0,1,1.324,2.3,27.769,27.769,0,0,1-1.095,5.4,4.008,4.008,0,0,1-2.224,2.518,8.228,8.228,0,0,1-3.384.474,6.038,6.038,0,0,1-2.993-.458,2.289,2.289,0,0,1-1.16-2.191,25.637,25.637,0,0,1,1.144-5.478,3.939,3.939,0,0,1,2.257-2.486,8.1,8.1,0,0,1,3.4-.457A6.15,6.15,0,0,1,1036.583,553.366Zm-5.675,2.469a6.168,6.168,0,0,0-.784,2.469,13.61,13.61,0,0,0-.425,2.469c0,.965.327,1.128,2.207,1.128,1.733,0,2.175-.311,2.633-1.9a28.347,28.347,0,0,0,.72-3.712c0-.523-.147-.818-.474-.965a3.611,3.611,0,0,0-1.619-.18C1031.759,555.148,1031.318,555.279,1030.908,555.835Z" transform="translate(-891.773 -549.818)" fill="#2a5072"/>
      <path id="Caminho_37" data-name="Caminho 37" d="M1048.1,557.7h4.644l-.443,2.076h-4.643l-.9,4.219h-2.518l2.321-10.906h7.473l-.442,2.076h-4.954Z" transform="translate(-894.167 -549.831)" fill="#2a5072"/>
      <path id="Caminho_38" data-name="Caminho 38" d="M1056.692,553.085h5.429a4.949,4.949,0,0,1,2.273.36,1.763,1.763,0,0,1,.9,1.635,7.912,7.912,0,0,1-.966,3.515,2.658,2.658,0,0,1-1.9,1l-.015.081c1.047.065,1.553.54,1.553,1.424a2.643,2.643,0,0,1-.1.719l-.457,2.175h-2.551l.36-1.7a2.632,2.632,0,0,0,.082-.653c0-.639-.343-.9-1.177-.9h-2.535l-.7,3.253h-2.518Zm3.958,5.51c.867,0,1.292-.228,1.553-.85a7.187,7.187,0,0,0,.375-1.717c0-.6-.277-.784-1.226-.784h-2.6l-.719,3.351Z" transform="translate(-895.578 -549.831)" fill="#2a5072"/>
      <path id="Caminho_39" data-name="Caminho 39" d="M1070.631,557.549h4.856l-.376,1.783h-4.856l-.556,2.583h5.232l-.442,2.077h-7.751l2.323-10.906h7.668l-.442,2.076h-5.151Z" transform="translate(-897.3 -549.831)" fill="#2a5072"/>
      <path id="Caminho_40" data-name="Caminho 40" d="M1082.019,563.991H1079.5l1.848-8.732h-2.944l.459-2.174h8.568l-.474,2.174h-3.074Z" transform="translate(-898.925 -549.831)" fill="#2a5072"/>
      <path id="Caminho_41" data-name="Caminho 41" d="M1090.809,557.549h4.856l-.375,1.783h-4.857l-.556,2.583h5.233l-.442,2.077h-7.751l2.321-10.906h7.669l-.441,2.076h-5.151Z" transform="translate(-900.111 -549.831)" fill="#2a5072"/>
    </g>
  </g>
</svg>
